<?xml version="1.0" encoding="UTF-8"?>
<!DOCTYPE svg PUBLIC "-//W3C//DTD SVG 1.1//EN" "http://www.w3.org/Graphics/SVG/1.1/DTD/svg11.dtd">
<!-- Creator: CorelDRAW 2019 (64-Bit) -->
<svg xmlns="http://www.w3.org/2000/svg" xml:space="preserve" width="91.72mm" height="33.972mm" version="1.1" style="shape-rendering:geometricPrecision; text-rendering:geometricPrecision; image-rendering:optimizeQuality; fill-rule:evenodd; clip-rule:evenodd"
viewBox="0 0 9172 3397.2"
 xmlns:xlink="http://www.w3.org/1999/xlink"
 xmlns:xodm="http://www.corel.com/coreldraw/odm/2003">
 <defs>
  <style type="text/css">
   <![CDATA[
    .fil0 {fill:#434242;fill-rule:nonzero}
    .fil3 {fill:url(#id0)}
    .fil4 {fill:url(#id1)}
    .fil1 {fill:url(#id2)}
    .fil2 {fill:url(#id3)}
   ]]>
  </style>
  <linearGradient id="id0" gradientUnits="userSpaceOnUse" x1="2934.81" y1="1818.04" x2="2229.97" y2="818.55">
   <stop offset="0" style="stop-opacity:1; stop-color:#858586"/>
   <stop offset="1" style="stop-opacity:1; stop-color:#AFAFB0"/>
  </linearGradient>
  <linearGradient id="id1" gradientUnits="userSpaceOnUse" x1="2061.57" y1="1053" x2="271.12" y2="362.07">
   <stop offset="0" style="stop-opacity:1; stop-color:#858586"/>
   <stop offset="1" style="stop-opacity:1; stop-color:#C0BFBF"/>
  </linearGradient>
  <linearGradient id="id2" gradientUnits="userSpaceOnUse" x1="854.51" y1="3031.09" x2="1323.42" y2="1432.04">
   <stop offset="0" style="stop-opacity:1; stop-color:#FECC00"/>
   <stop offset="1" style="stop-opacity:1; stop-color:#EDC056"/>
  </linearGradient>
  <linearGradient id="id3" gradientUnits="userSpaceOnUse" xlink:href="#id1" x1="1934.23" y1="2363.88" x2="2934.66" y2="2576.7">
  </linearGradient>
 </defs>
 <g id="Слой_x0020_1">
  <metadata id="CorelCorpID_0Corel-Layer"/>
  <path class="fil0" d="M3792.71 1395.08c113.53,0 170.33,60.1 170.33,180.31l0 71.04c0,120.21 -56.8,180.32 -170.33,180.32l-152.48 0c-113.53,0 -170.33,-60.11 -170.33,-180.32l0 -42.36 170.33 0 0 60.13c0,7.28 2.51,13.66 7.55,19.11 5.05,5.47 11.24,8.2 18.55,8.2l112.63 0c7.34,0 13.53,-2.73 18.55,-8.2 5.03,-5.45 7.55,-11.83 7.55,-19.11l0 -81.97c0,-7.28 -2.52,-13.66 -7.55,-19.13 -5.02,-5.45 -11.21,-8.19 -18.55,-8.19l-141.46 0c-113.56,0 -170.34,-60.11 -170.34,-180.32l0 -61.48c0,-120.21 56.78,-180.33 170.34,-180.33l144.23 0c113.55,0 170.33,60.12 170.33,180.33l0 24.59 -170.33 0 0 -42.35c0,-7.28 -2.52,-13.64 -7.57,-19.13 -5.03,-5.45 -11.2,-8.18 -18.56,-8.18l-104.39 0c-7.31,0 -13.5,2.73 -18.53,8.18 -5.04,5.49 -7.55,11.85 -7.55,19.13l0 72.42c0,7.28 2.51,13.66 7.55,19.11 5.03,5.47 11.22,8.2 18.53,8.2l141.5 0zm935.94 13.66l-184.08 0 0 -117.48c0,-7.29 -2.52,-13.67 -7.55,-19.13 -5.02,-5.46 -11.21,-8.2 -18.55,-8.2l-75.52 0c-7.34,0 -13.51,2.74 -18.55,8.2 -5.03,5.46 -7.55,11.84 -7.55,19.13l0 377.03c0,7.29 2.52,13.67 7.55,19.13 5.04,5.47 11.21,8.2 18.55,8.2l75.52 0c7.34,0 13.53,-2.73 18.55,-8.2 5.03,-5.46 7.55,-11.84 7.55,-19.13l0 -117.48 184.08 0 0 95.62c0,120.21 -56.8,180.32 -170.34,180.32l-155.21 0c-113.53,0 -170.33,-60.11 -170.33,-180.32l0 -333.32c0,-120.21 56.8,-180.33 170.33,-180.33l155.21 0c113.54,0 170.34,60.12 170.34,180.33l0 95.63zm563.69 -275.96l35.73 0 0 177.61 -90.67 0c-31.15,0 -46.7,15.93 -46.7,47.81l0 454.9 -184.05 0 0 -666.64 167.57 0 0 64.21c26.57,-51.92 65.92,-77.89 118.12,-77.89zm604.92 0c113.53,0 170.32,60.12 170.32,180.33l0 215.84 -311.79 0 0 139.34c0,7.29 2.51,13.67 7.55,19.13 5.01,5.47 11.2,8.2 18.54,8.2l75.54 0c7.33,0 13.5,-2.73 18.53,-8.2 5.04,-5.46 7.55,-11.84 7.55,-19.13l0 -73.77 184.08 0 0 51.91c0,120.21 -56.79,180.32 -170.32,180.32l-155.21 0c-113.55,0 -170.35,-60.11 -170.35,-180.32l0 -333.32c0,-120.21 56.8,-180.33 170.35,-180.33l155.21 0zm-141.47 275.96l127.71 0 0 -122.95c0,-7.29 -2.51,-13.66 -7.55,-19.12 -5.03,-5.47 -11.2,-8.19 -18.53,-8.19l-75.54 0c-7.34,0 -13.53,2.72 -18.54,8.19 -5.04,5.46 -7.55,11.83 -7.55,19.12l0 122.95zm900.2 -275.96c113.58,0 170.33,60.12 170.33,180.33l0 215.84 -311.8 0 0 139.34c0,7.29 2.52,13.67 7.57,19.13 5.03,5.47 11.22,8.2 18.53,8.2l75.57 0c7.31,0 13.49,-2.73 18.53,-8.2 5.03,-5.46 7.55,-11.84 7.55,-19.13l0 -73.77 184.05 0 0 51.91c0,120.21 -56.75,180.32 -170.33,180.32l-155.21 0c-113.54,0 -170.33,-60.11 -170.33,-180.32l0 -333.32c0,-120.21 56.79,-180.33 170.33,-180.33l155.21 0zm-141.47 275.96l127.75 0 0 -122.95c0,-7.29 -2.52,-13.66 -7.55,-19.12 -5.04,-5.47 -11.22,-8.19 -18.53,-8.19l-75.57 0c-7.31,0 -13.5,2.72 -18.53,8.19 -5.05,5.46 -7.57,11.83 -7.57,19.12l0 122.95zm758.75 404.36l-184.05 0 0 -666.64 167.57 0 0 34.15c28.39,-31.88 71.42,-47.83 129.11,-47.83l28.86 0c113.54,0 170.32,60.12 170.32,180.33l0 499.99 -184.06 0 0 -521.84c0,-7.29 -2.54,-13.67 -7.57,-19.13 -5.03,-5.46 -11.19,-8.2 -18.51,-8.2l-75.56 0c-7.34,0 -13.53,2.74 -18.56,8.2 -5.03,5.46 -7.55,11.84 -7.55,19.13l0 521.84zm793.09 -303.28l0 146.16 296.69 0 0 157.12 -472.52 0 0 -318.3c0,-120.21 56.78,-180.31 170.33,-180.31l109.9 0c7.31,0 13.49,-2.75 18.54,-8.2 5.03,-5.47 7.55,-11.84 7.55,-19.13l0 -195.35c0,-7.27 -2.52,-13.65 -7.55,-19.12 -5.05,-5.46 -11.23,-8.19 -18.54,-8.19l-81.03 0c-7.36,0 -13.51,2.73 -18.55,8.19 -5.03,5.47 -7.56,11.85 -7.56,19.12l0 69.67 -182.69 0 0 -65.57c0,-120.21 56.78,-180.32 170.33,-180.32l152.48 0c113.53,0 170.31,60.11 170.31,180.32l0 206.28c0,120.21 -56.78,180.32 -170.31,180.32l-111.29 0c-7.31,0 -13.48,2.74 -18.53,8.19 -5.03,5.46 -7.56,11.83 -7.56,19.12zm900.23 -377.04l28.84 0c113.56,0 170.31,60.12 170.31,180.33l0 333.32c0,120.21 -56.75,180.32 -170.31,180.32l-28.84 0c-65.93,0 -113.09,-20.95 -141.48,-62.85l0 49.2 -155.23 0 0 -883.84 184.08 0 0 236.32c29.29,-21.86 66.83,-32.8 112.63,-32.8zm-112.63 158.48l0 377.03c0,7.29 2.52,13.67 7.55,19.13 5.05,5.47 11.22,8.2 18.53,8.2l75.56 0c7.34,0 13.51,-2.73 18.54,-8.2 5.05,-5.46 7.57,-11.84 7.57,-19.13l0 -377.03c0,-7.29 -2.52,-13.67 -7.57,-19.13 -5.03,-5.46 -11.2,-8.2 -18.54,-8.2l-75.56 0c-7.31,0 -13.48,2.74 -18.53,8.2 -5.03,5.46 -7.55,11.84 -7.55,19.13z"/>
  <path class="fil0" d="M4489.39 2384.89l0 -182.87 63.36 0c14.3,0 25.22,0.84 32.75,2.58 10.52,2.44 19.5,6.81 26.95,13.12 9.73,8.18 16.95,18.57 21.74,31.25 4.84,12.68 7.25,27.2 7.25,43.5 0,13.88 -1.63,26.18 -4.89,36.91 -3.24,10.73 -7.45,19.62 -12.55,26.65 -5.13,7.03 -10.68,12.56 -16.76,16.55 -6.04,4.05 -13.36,7.12 -21.92,9.21 -8.61,2.09 -18.45,3.1 -29.58,3.1l-66.35 0zm24.4 -21.46l39.22 0c12.12,0 21.61,-1.11 28.5,-3.35 6.89,-2.26 12.37,-5.42 16.48,-9.5 5.73,-5.75 10.24,-13.49 13.45,-23.21 3.2,-9.7 4.82,-21.44 4.82,-35.28 0,-19.16 -3.17,-33.88 -9.46,-44.18 -6.29,-10.31 -13.95,-17.2 -22.98,-20.7 -6.51,-2.51 -17,-3.74 -31.46,-3.74l-38.57 0 0 139.96zm272.88 21.46l0 -182.87 24.39 0 0 182.87 -24.39 0zm260.95 -71.76l0 -21.46 77.81 0 0 67.76c-11.94,9.45 -24.27,16.61 -36.97,21.37 -12.72,4.78 -25.77,7.15 -39.14,7.15 -18.07,0 -34.44,-3.83 -49.22,-11.53 -14.73,-7.67 -25.89,-18.82 -33.38,-33.33 -7.55,-14.55 -11.31,-30.82 -11.31,-48.74 0,-17.8 3.73,-34.4 11.23,-49.85 7.48,-15.41 18.22,-26.86 32.25,-34.32 14.05,-7.48 30.23,-11.23 48.54,-11.23 13.29,0 25.32,2.13 36.06,6.42 10.75,4.31 19.17,10.27 25.24,17.89 6.13,7.66 10.74,17.66 13.91,29.96l-21.95 5.97c-2.78,-9.28 -6.2,-16.6 -10.28,-21.96 -4.11,-5.33 -9.93,-9.58 -17.54,-12.79 -7.57,-3.18 -16,-4.81 -25.3,-4.81 -11.08,0 -20.68,1.72 -28.81,5.07 -8.08,3.37 -14.6,7.8 -19.61,13.33 -4.95,5.49 -8.82,11.54 -11.55,18.09 -4.67,11.36 -7.02,23.62 -7.02,36.86 0,16.34 2.83,30.02 8.44,41.04 5.64,10.98 13.86,19.16 24.62,24.47 10.76,5.33 22.19,8.02 34.31,8.02 10.54,0 20.81,-2.04 30.83,-6.1 10.01,-4.08 17.58,-8.38 22.76,-13.02l0 -34.26 -53.92 0zm225.51 71.76l0 -182.87 24.39 0 0 182.87 -24.39 0zm221.66 0l0 -161.42 -60.61 0 0 -21.45 145.62 0 0 21.45 -60.62 0 0 161.42 -24.39 0zm178.61 0l70.54 -182.87 26.75 0 74.87 182.87 -27.69 0 -21.29 -55.42 -77.42 0 -19.94 55.42 -25.82 0zm52.9 -75.09l62.67 0 -19.17 -50.7c-5.79,-15.41 -10.16,-28.14 -13.19,-38.19 -2.52,11.93 -5.91,23.63 -10.14,35.21l-20.17 53.68zm245.22 75.09l0 -182.87 24.39 0 0 161.41 90.39 0 0 21.46 -114.78 0zm376.72 -58.75l22.86 -2.04c1.08,9.2 3.59,16.74 7.59,22.65 3.97,5.87 10.14,10.64 18.48,14.31 8.35,3.62 17.76,5.45 28.21,5.45 9.28,0 17.46,-1.37 24.56,-4.15 7.12,-2.74 12.38,-6.55 15.84,-11.36 3.47,-4.81 5.23,-10.04 5.23,-15.65 0,-5.71 -1.67,-10.69 -5.01,-14.99 -3.34,-4.26 -8.87,-7.83 -16.57,-10.77 -4.91,-1.87 -15.84,-4.85 -32.74,-8.9 -16.91,-4.05 -28.72,-7.84 -35.5,-11.41 -8.75,-4.6 -15.26,-10.29 -19.55,-17.07 -4.31,-6.77 -6.46,-14.39 -6.46,-22.77 0,-9.27 2.66,-17.92 7.92,-25.93 5.26,-8.04 12.93,-14.14 23.06,-18.3 10.11,-4.17 21.37,-6.26 33.73,-6.26 13.63,0 25.64,2.17 36.05,6.55 10.39,4.35 18.4,10.78 24.02,19.28 5.6,8.47 8.59,18.1 9.02,28.83l-23.36 1.79c-1.25,-11.54 -5.49,-20.27 -12.72,-26.15 -7.24,-5.91 -17.93,-8.84 -32.07,-8.84 -14.72,0 -25.46,2.69 -32.18,8.04 -6.71,5.36 -10.11,11.84 -10.11,19.42 0,6.55 2.41,11.95 7.17,16.22 4.69,4.2 16.9,8.6 36.67,13.02 19.79,4.47 33.34,8.34 40.71,11.66 10.66,4.89 18.57,11.07 23.66,18.61 5.09,7.48 7.63,16.12 7.63,25.92 0,9.74 -2.79,18.86 -8.39,27.46 -5.6,8.6 -13.61,15.28 -24.09,20.04 -10.49,4.78 -22.28,7.15 -35.42,7.15 -16.6,0 -30.5,-2.41 -41.72,-7.23 -11.27,-4.81 -20.02,-12.05 -26.41,-21.75 -6.42,-9.66 -9.75,-20.61 -10.11,-32.83zm291.05 58.75l0 -182.87 24.4 0 0 182.87 -24.4 0zm260.96 -71.76l0 -21.46 77.81 0 0 67.76c-11.94,9.45 -24.26,16.61 -36.97,21.37 -12.72,4.78 -25.77,7.15 -39.12,7.15 -18.06,0 -34.46,-3.83 -49.22,-11.53 -14.73,-7.67 -25.9,-18.82 -33.41,-33.33 -7.51,-14.55 -11.29,-30.82 -11.29,-48.74 0,-17.8 3.73,-34.4 11.22,-49.85 7.49,-15.41 18.25,-26.86 32.28,-34.32 14.04,-7.48 30.2,-11.23 48.52,-11.23 13.27,0 25.32,2.13 36.05,6.42 10.75,4.31 19.18,10.27 25.26,17.89 6.11,7.66 10.75,17.66 13.91,29.96l-21.96 5.97c-2.79,-9.28 -6.21,-16.6 -10.29,-21.96 -4.09,-5.33 -9.92,-9.58 -17.53,-12.79 -7.58,-3.18 -16.02,-4.81 -25.31,-4.81 -11.08,0 -20.65,1.72 -28.81,5.07 -8.08,3.37 -14.59,7.8 -19.58,13.33 -4.97,5.49 -8.82,11.54 -11.56,18.09 -4.68,11.36 -7.02,23.62 -7.02,36.86 0,16.34 2.82,30.02 8.41,41.04 5.66,10.98 13.89,19.16 24.63,24.47 10.78,5.33 22.22,8.02 34.33,8.02 10.53,0 20.8,-2.04 30.81,-6.1 10.01,-4.08 17.59,-8.38 22.77,-13.02l0 -34.26 -53.93 0zm221.15 71.76l0 -182.87 25 0 96.48 143.55 0 -143.55 23.37 0 0 182.87 -25 0 -96.48 -143.54 0 143.54 -23.37 0zm273.25 0l70.53 -182.87 26.76 0 74.87 182.87 -27.69 0 -21.29 -55.42 -77.42 0 -19.95 55.42 -25.81 0zm52.9 -75.09l62.66 0 -19.17 -50.7c-5.77,-15.41 -10.15,-28.14 -13.19,-38.19 -2.51,11.93 -5.9,23.63 -10.13,35.21l-20.17 53.68zm332.28 3.33l0 -21.46 77.81 0 0 67.76c-11.94,9.45 -24.28,16.61 -36.99,21.37 -12.7,4.78 -25.77,7.15 -39.13,7.15 -18.06,0 -34.45,-3.83 -49.22,-11.53 -14.73,-7.67 -25.9,-18.82 -33.37,-33.33 -7.55,-14.55 -11.3,-30.82 -11.3,-48.74 0,-17.8 3.72,-34.4 11.21,-49.85 7.49,-15.41 18.23,-26.86 32.26,-34.32 14.05,-7.48 30.24,-11.23 48.55,-11.23 13.27,0 25.29,2.13 36.05,6.42 10.73,4.31 19.17,10.27 25.24,17.89 6.12,7.66 10.74,17.66 13.9,29.96l-21.93 5.97c-2.79,-9.28 -6.22,-16.6 -10.29,-21.96 -4.1,-5.33 -9.94,-9.58 -17.54,-12.79 -7.59,-3.18 -16,-4.81 -25.3,-4.81 -11.08,0 -20.68,1.72 -28.81,5.07 -8.08,3.37 -14.59,7.8 -19.61,13.33 -4.96,5.49 -8.82,11.54 -11.55,18.09 -4.67,11.36 -7.02,23.62 -7.02,36.86 0,16.34 2.83,30.02 8.44,41.04 5.64,10.98 13.86,19.16 24.61,24.47 10.78,5.33 22.2,8.02 34.32,8.02 10.54,0 20.8,-2.04 30.83,-6.1 10.01,-4.08 17.58,-8.38 22.76,-13.02l0 -34.26 -53.92 0zm221.91 71.76l0 -182.87 132.78 0 0 21.45 -108.38 0 0 56.19 101.45 0 0 21.46 -101.45 0 0 62.31 112.75 0 0 21.46 -137.15 0z"/>
  <path class="fil1" d="M196.61 1289.82l355.51 1755.63c64.54,318.78 456.13,473.79 806.91,304.04l578.19 -279.81 -258.07 -1249.95c-35.8,-173.42 -209.62,-450.91 -671.23,-479.55l-811.31 -50.36z"/>
  <path class="fil2" d="M2054.1 3012.4l-98.95 -471.9c-41.31,-196.97 37.78,-434.11 277.68,-476.14l681.2 -119.32 62.26 299.24c23.11,111.07 17.89,310.52 -141.73,388.22l-780.46 379.9z"/>
  <path class="fil3" d="M2154.49 603.37l201.1 1001.91c18.12,90.26 121.74,317.33 316.87,290.94l225.93 -30.56 -165.89 -805.95c-33.38,-162.09 -137.86,-304.05 -315.01,-365.35l-263 -90.99z"/>
  <path class="fil4" d="M167.03 1146.78l1604.34 142.16c261.11,23.14 427.57,-47.77 369.89,-329.67l-79.27 -387.34 -1423.69 -486.83c-203.53,-69.61 -701.26,-78.47 -607.42,386.77l136.15 674.91z"/>
 </g>
</svg>
